<mxfile host="app.diagrams.net" modified="2021-09-18T10:26:16.480Z" agent="5.0 (Windows NT 10.0; Win64; x64) AppleWebKit/537.36 (KHTML, like Gecko) Chrome/93.0.4577.82 Safari/537.36" etag="YGNm6-KYHRp0ZERE0tu7" version="14.9.7" type="github">
  <diagram name="Page-1" id="0783ab3e-0a74-02c8-0abd-f7b4e66b4bec">
    <mxGraphModel dx="1504" dy="644" grid="1" gridSize="10" guides="1" tooltips="1" connect="1" arrows="1" fold="1" page="1" pageScale="1" pageWidth="850" pageHeight="1100" background="none" math="0" shadow="0">
      <root>
        <mxCell id="0" />
        <mxCell id="1" parent="0" />
        <mxCell id="1c1d494c118603dd-1" value="BNPL" style="swimlane;html=1;childLayout=stackLayout;startSize=20;rounded=0;shadow=0;comic=0;labelBackgroundColor=none;strokeWidth=1;fontFamily=Verdana;fontSize=12;align=center;" parent="1" vertex="1">
          <mxGeometry x="40" y="20" width="1160" height="1840" as="geometry" />
        </mxCell>
        <mxCell id="1c1d494c118603dd-2" value="Юзер" style="swimlane;html=1;startSize=20;" parent="1c1d494c118603dd-1" vertex="1">
          <mxGeometry y="20" width="250" height="1820" as="geometry" />
        </mxCell>
        <mxCell id="1c1d494c118603dd-6" value="Выбирает оплату через АльфаШопинг" style="rounded=1;whiteSpace=wrap;html=1;shadow=0;comic=0;labelBackgroundColor=none;strokeWidth=1;fontFamily=Verdana;fontSize=12;align=center;arcSize=50;" parent="1c1d494c118603dd-2" vertex="1">
          <mxGeometry x="40" y="210" width="170" height="60" as="geometry" />
        </mxCell>
        <mxCell id="Rx35QmX60fOlnL7CrSn4-102" value="Есть выбор альтернатив" style="shape=note;whiteSpace=wrap;html=1;rounded=0;shadow=0;comic=0;labelBackgroundColor=none;strokeWidth=1;fontFamily=Verdana;fontSize=12;align=center;size=20;" vertex="1" parent="1c1d494c118603dd-2">
          <mxGeometry x="10" y="120" width="130" height="60" as="geometry" />
        </mxCell>
        <mxCell id="Rx35QmX60fOlnL7CrSn4-103" style="edgeStyle=none;rounded=0;html=1;labelBackgroundColor=none;startArrow=none;startFill=0;startSize=5;endArrow=oval;endFill=0;endSize=5;jettySize=auto;orthogonalLoop=1;strokeWidth=1;fontFamily=Verdana;fontSize=12;dashed=1;entryX=0.5;entryY=1;entryDx=0;entryDy=0;exitX=0.25;exitY=0;exitDx=0;exitDy=0;entryPerimeter=0;" edge="1" parent="1c1d494c118603dd-2" source="1c1d494c118603dd-6" target="Rx35QmX60fOlnL7CrSn4-102">
          <mxGeometry relative="1" as="geometry">
            <mxPoint x="170" y="190" as="sourcePoint" />
            <mxPoint x="120" y="160" as="targetPoint" />
          </mxGeometry>
        </mxCell>
        <mxCell id="Rx35QmX60fOlnL7CrSn4-107" value="Вводит номер телефона" style="rounded=1;whiteSpace=wrap;html=1;shadow=0;comic=0;labelBackgroundColor=none;strokeWidth=1;fontFamily=Verdana;fontSize=12;align=center;arcSize=50;" vertex="1" parent="1c1d494c118603dd-2">
          <mxGeometry x="40" y="310" width="170" height="60" as="geometry" />
        </mxCell>
        <mxCell id="1c1d494c118603dd-34" style="edgeStyle=none;rounded=0;html=1;labelBackgroundColor=none;startArrow=none;startFill=0;startSize=5;endArrow=classicThin;endFill=1;endSize=5;jettySize=auto;orthogonalLoop=1;strokeWidth=1;fontFamily=Verdana;fontSize=12;entryX=0.5;entryY=0;entryDx=0;entryDy=0;" parent="1c1d494c118603dd-2" source="1c1d494c118603dd-6" target="Rx35QmX60fOlnL7CrSn4-107" edge="1">
          <mxGeometry relative="1" as="geometry">
            <mxPoint x="125" y="320" as="targetPoint" />
          </mxGeometry>
        </mxCell>
        <mxCell id="Rx35QmX60fOlnL7CrSn4-122" value="Вводит ИИН" style="rounded=1;whiteSpace=wrap;html=1;shadow=0;comic=0;labelBackgroundColor=none;strokeWidth=1;fontFamily=Verdana;fontSize=12;align=center;arcSize=50;" vertex="1" parent="1c1d494c118603dd-2">
          <mxGeometry x="40" y="580" width="170" height="60" as="geometry" />
        </mxCell>
        <mxCell id="Rx35QmX60fOlnL7CrSn4-126" value="Вводит код подтверждения" style="rounded=1;whiteSpace=wrap;html=1;shadow=0;comic=0;labelBackgroundColor=none;strokeWidth=1;fontFamily=Verdana;fontSize=12;align=center;arcSize=50;" vertex="1" parent="1c1d494c118603dd-2">
          <mxGeometry x="40" y="400" width="170" height="60" as="geometry" />
        </mxCell>
        <mxCell id="1c1d494c118603dd-3" value="Мерчант" style="swimlane;html=1;startSize=20;" parent="1c1d494c118603dd-1" vertex="1">
          <mxGeometry x="250" y="20" width="250" height="1820" as="geometry" />
        </mxCell>
        <mxCell id="1c1d494c118603dd-39" style="edgeStyle=none;rounded=0;html=1;labelBackgroundColor=none;startArrow=none;startFill=0;startSize=5;endArrow=classicThin;endFill=1;endSize=5;jettySize=auto;orthogonalLoop=1;strokeWidth=1;fontFamily=Verdana;fontSize=12" parent="1c1d494c118603dd-3" edge="1">
          <mxGeometry relative="1" as="geometry">
            <mxPoint x="113.5" y="970" as="sourcePoint" />
            <mxPoint x="113.84999999999991" y="860" as="targetPoint" />
          </mxGeometry>
        </mxCell>
        <mxCell id="1c1d494c118603dd-12" value="" style="whiteSpace=wrap;html=1;rounded=0;shadow=0;comic=0;labelBackgroundColor=none;strokeWidth=1;fillColor=#000000;fontFamily=Verdana;fontSize=12;align=center;rotation=0;" parent="1c1d494c118603dd-3" vertex="1">
          <mxGeometry x="40" y="820" width="147" height="10" as="geometry" />
        </mxCell>
        <mxCell id="Rx35QmX60fOlnL7CrSn4-75" value="" style="shape=mxgraph.bpmn.shape;html=1;verticalLabelPosition=bottom;labelBackgroundColor=#ffffff;verticalAlign=top;perimeter=ellipsePerimeter;outline=end;symbol=terminate;rounded=0;shadow=0;comic=0;strokeWidth=1;fontFamily=Verdana;fontSize=12;align=center;" vertex="1" parent="1c1d494c118603dd-3">
          <mxGeometry x="40" y="910" width="40" height="40" as="geometry" />
        </mxCell>
        <mxCell id="Rx35QmX60fOlnL7CrSn4-98" value="Показывает баннер АльфаШопинг на своей платформе" style="rounded=1;whiteSpace=wrap;html=1;shadow=0;comic=0;labelBackgroundColor=none;strokeWidth=1;fontFamily=Verdana;fontSize=12;align=center;arcSize=50;" vertex="1" parent="1c1d494c118603dd-3">
          <mxGeometry x="30" y="120" width="190" height="70" as="geometry" />
        </mxCell>
        <mxCell id="Rx35QmX60fOlnL7CrSn4-99" value="Возможно персонализировать баннер" style="shape=note;whiteSpace=wrap;html=1;rounded=0;shadow=0;comic=0;labelBackgroundColor=none;strokeWidth=1;fontFamily=Verdana;fontSize=12;align=center;size=20;" vertex="1" parent="1c1d494c118603dd-3">
          <mxGeometry x="110" y="220" width="130" height="60" as="geometry" />
        </mxCell>
        <mxCell id="Rx35QmX60fOlnL7CrSn4-100" style="edgeStyle=none;rounded=0;html=1;labelBackgroundColor=none;startArrow=none;startFill=0;startSize=5;endArrow=oval;endFill=0;endSize=5;jettySize=auto;orthogonalLoop=1;strokeWidth=1;fontFamily=Verdana;fontSize=12;dashed=1;entryX=0.5;entryY=1;entryDx=0;entryDy=0;exitX=0.5;exitY=0;exitDx=0;exitDy=0;exitPerimeter=0;" edge="1" parent="1c1d494c118603dd-3" source="Rx35QmX60fOlnL7CrSn4-99" target="Rx35QmX60fOlnL7CrSn4-98">
          <mxGeometry relative="1" as="geometry">
            <mxPoint x="-147.3611111111111" y="278" as="sourcePoint" />
            <mxPoint x="-121.52777777777783" y="260" as="targetPoint" />
          </mxGeometry>
        </mxCell>
        <mxCell id="Rx35QmX60fOlnL7CrSn4-138" value="" style="ellipse;html=1;shape=startState;fillColor=#000000;strokeColor=#ff0000;" vertex="1" parent="1c1d494c118603dd-3">
          <mxGeometry x="110" y="60" width="30" height="30" as="geometry" />
        </mxCell>
        <mxCell id="Rx35QmX60fOlnL7CrSn4-139" value="" style="edgeStyle=orthogonalEdgeStyle;html=1;verticalAlign=bottom;endArrow=open;endSize=8;strokeColor=#ff0000;entryX=0.5;entryY=0;entryDx=0;entryDy=0;" edge="1" source="Rx35QmX60fOlnL7CrSn4-138" parent="1c1d494c118603dd-3" target="Rx35QmX60fOlnL7CrSn4-98">
          <mxGeometry relative="1" as="geometry">
            <mxPoint x="175" y="120" as="targetPoint" />
          </mxGeometry>
        </mxCell>
        <mxCell id="1c1d494c118603dd-4" value="Фактор" style="swimlane;html=1;startSize=20;" parent="1c1d494c118603dd-1" vertex="1">
          <mxGeometry x="500" y="20" width="660" height="1820" as="geometry" />
        </mxCell>
        <mxCell id="Rx35QmX60fOlnL7CrSn4-59" value="BNPL Backend" style="swimlane;html=1;startSize=20;" vertex="1" parent="1c1d494c118603dd-4">
          <mxGeometry y="20" width="220" height="1800" as="geometry" />
        </mxCell>
        <mxCell id="Rx35QmX60fOlnL7CrSn4-118" value="3D secure" style="rounded=1;whiteSpace=wrap;html=1;shadow=0;comic=0;labelBackgroundColor=none;strokeWidth=1;fontFamily=Verdana;fontSize=12;align=center;arcSize=50;" vertex="1" parent="Rx35QmX60fOlnL7CrSn4-59">
          <mxGeometry x="45" y="290" width="130" height="60" as="geometry" />
        </mxCell>
        <mxCell id="Rx35QmX60fOlnL7CrSn4-123" value="Код подтверждения" style="rounded=0;whiteSpace=wrap;html=1;shadow=0;comic=0;labelBackgroundColor=none;strokeWidth=1;fontFamily=Verdana;fontSize=12;align=center;arcSize=50;" vertex="1" parent="Rx35QmX60fOlnL7CrSn4-59">
          <mxGeometry x="40" y="395" width="140" height="30" as="geometry" />
        </mxCell>
        <mxCell id="Rx35QmX60fOlnL7CrSn4-124" style="edgeStyle=none;rounded=0;html=1;labelBackgroundColor=none;startArrow=none;startFill=0;startSize=5;endArrow=classicThin;endFill=1;endSize=5;jettySize=auto;orthogonalLoop=1;strokeWidth=1;fontFamily=Verdana;fontSize=12;entryX=0.5;entryY=0;entryDx=0;entryDy=0;exitX=0.5;exitY=1;exitDx=0;exitDy=0;" edge="1" parent="Rx35QmX60fOlnL7CrSn4-59" source="Rx35QmX60fOlnL7CrSn4-118" target="Rx35QmX60fOlnL7CrSn4-123">
          <mxGeometry relative="1" as="geometry">
            <mxPoint x="-365.0000000000002" y="260" as="sourcePoint" />
            <mxPoint x="-365.0000000000002" y="300" as="targetPoint" />
            <Array as="points" />
          </mxGeometry>
        </mxCell>
        <mxCell id="Rx35QmX60fOlnL7CrSn4-131" value="Запрос ИИН + Телефон" style="rounded=0;whiteSpace=wrap;html=1;shadow=0;comic=0;labelBackgroundColor=none;strokeWidth=1;fontFamily=Verdana;fontSize=12;align=center;arcSize=50;" vertex="1" parent="Rx35QmX60fOlnL7CrSn4-59">
          <mxGeometry x="40" y="645" width="140" height="50" as="geometry" />
        </mxCell>
        <mxCell id="Rx35QmX60fOlnL7CrSn4-141" value="Код введен верно" style="rhombus;whiteSpace=wrap;html=1;fillColor=#ffffc0;strokeColor=#ff0000;" vertex="1" parent="Rx35QmX60fOlnL7CrSn4-59">
          <mxGeometry x="40" y="450" width="140" height="100" as="geometry" />
        </mxCell>
        <mxCell id="Rx35QmX60fOlnL7CrSn4-142" value="" style="edgeStyle=orthogonalEdgeStyle;html=1;align=left;verticalAlign=bottom;endArrow=open;endSize=8;strokeColor=#ff0000;entryX=1;entryY=0.5;entryDx=0;entryDy=0;exitX=1;exitY=0.5;exitDx=0;exitDy=0;" edge="1" source="Rx35QmX60fOlnL7CrSn4-141" parent="Rx35QmX60fOlnL7CrSn4-59" target="Rx35QmX60fOlnL7CrSn4-118">
          <mxGeometry x="-0.5556" y="30" relative="1" as="geometry">
            <mxPoint x="265" y="510" as="targetPoint" />
            <Array as="points">
              <mxPoint x="200" y="500" />
              <mxPoint x="200" y="320" />
            </Array>
            <mxPoint y="-1" as="offset" />
          </mxGeometry>
        </mxCell>
        <mxCell id="Rx35QmX60fOlnL7CrSn4-146" value="Нет" style="edgeLabel;html=1;align=center;verticalAlign=middle;resizable=0;points=[];" vertex="1" connectable="0" parent="Rx35QmX60fOlnL7CrSn4-142">
          <mxGeometry x="0.1838" y="2" relative="1" as="geometry">
            <mxPoint y="73" as="offset" />
          </mxGeometry>
        </mxCell>
        <mxCell id="Rx35QmX60fOlnL7CrSn4-87" value="БМГ" style="swimlane;html=1;startSize=20;" vertex="1" parent="1c1d494c118603dd-4">
          <mxGeometry x="220" y="20" width="220" height="1800" as="geometry" />
        </mxCell>
        <mxCell id="Rx35QmX60fOlnL7CrSn4-119" style="edgeStyle=none;rounded=0;html=1;labelBackgroundColor=none;startArrow=none;startFill=0;startSize=5;endArrow=classicThin;endFill=1;endSize=5;jettySize=auto;orthogonalLoop=1;strokeWidth=1;fontFamily=Verdana;fontSize=12;entryX=0;entryY=0.5;entryDx=0;entryDy=0;exitX=1;exitY=0.5;exitDx=0;exitDy=0;" edge="1" parent="1c1d494c118603dd-1" source="Rx35QmX60fOlnL7CrSn4-107" target="Rx35QmX60fOlnL7CrSn4-118">
          <mxGeometry relative="1" as="geometry">
            <mxPoint x="134.99999999999977" y="300" as="sourcePoint" />
            <mxPoint x="134.99999999999977" y="340" as="targetPoint" />
          </mxGeometry>
        </mxCell>
        <mxCell id="Rx35QmX60fOlnL7CrSn4-125" style="edgeStyle=none;rounded=0;html=1;labelBackgroundColor=none;startArrow=none;startFill=0;startSize=5;endArrow=classicThin;endFill=1;endSize=5;jettySize=auto;orthogonalLoop=1;strokeWidth=1;fontFamily=Verdana;fontSize=12;exitX=0;exitY=0.5;exitDx=0;exitDy=0;entryX=1;entryY=0.5;entryDx=0;entryDy=0;" edge="1" parent="1c1d494c118603dd-1" source="Rx35QmX60fOlnL7CrSn4-123" target="Rx35QmX60fOlnL7CrSn4-126">
          <mxGeometry relative="1" as="geometry">
            <mxPoint x="620" y="400" as="sourcePoint" />
            <mxPoint x="200" y="435" as="targetPoint" />
            <Array as="points" />
          </mxGeometry>
        </mxCell>
        <mxCell id="Rx35QmX60fOlnL7CrSn4-130" style="edgeStyle=none;rounded=0;html=1;labelBackgroundColor=none;startArrow=none;startFill=0;startSize=5;endArrow=classicThin;endFill=1;endSize=5;jettySize=auto;orthogonalLoop=1;strokeWidth=1;fontFamily=Verdana;fontSize=12;exitX=0.5;exitY=1;exitDx=0;exitDy=0;entryX=0;entryY=0.5;entryDx=0;entryDy=0;" edge="1" parent="1c1d494c118603dd-1" source="Rx35QmX60fOlnL7CrSn4-122" target="Rx35QmX60fOlnL7CrSn4-131">
          <mxGeometry relative="1" as="geometry">
            <mxPoint x="219.99999999999977" y="370" as="sourcePoint" />
            <mxPoint x="530" y="560" as="targetPoint" />
            <Array as="points">
              <mxPoint x="125" y="710" />
            </Array>
          </mxGeometry>
        </mxCell>
        <mxCell id="Rx35QmX60fOlnL7CrSn4-129" style="edgeStyle=none;rounded=0;html=1;labelBackgroundColor=none;startArrow=none;startFill=0;startSize=5;endArrow=classicThin;endFill=1;endSize=5;jettySize=auto;orthogonalLoop=1;strokeWidth=1;fontFamily=Verdana;fontSize=12;exitX=0.5;exitY=1;exitDx=0;exitDy=0;entryX=0;entryY=0.5;entryDx=0;entryDy=0;" edge="1" parent="1c1d494c118603dd-1" source="Rx35QmX60fOlnL7CrSn4-126" target="Rx35QmX60fOlnL7CrSn4-141">
          <mxGeometry relative="1" as="geometry">
            <mxPoint x="134.99999999999977" y="300" as="sourcePoint" />
            <mxPoint x="460" y="540" as="targetPoint" />
            <Array as="points">
              <mxPoint x="125" y="540" />
            </Array>
          </mxGeometry>
        </mxCell>
        <mxCell id="Rx35QmX60fOlnL7CrSn4-143" value="" style="edgeStyle=orthogonalEdgeStyle;html=1;align=left;verticalAlign=top;endArrow=open;endSize=8;strokeColor=#ff0000;entryX=1;entryY=0.5;entryDx=0;entryDy=0;" edge="1" source="Rx35QmX60fOlnL7CrSn4-141" parent="1c1d494c118603dd-1" target="Rx35QmX60fOlnL7CrSn4-122">
          <mxGeometry x="0.2735" y="45" relative="1" as="geometry">
            <mxPoint x="550" y="650" as="targetPoint" />
            <Array as="points">
              <mxPoint x="610" y="630" />
            </Array>
            <mxPoint as="offset" />
          </mxGeometry>
        </mxCell>
        <mxCell id="Rx35QmX60fOlnL7CrSn4-147" value="Да" style="edgeLabel;html=1;align=center;verticalAlign=middle;resizable=0;points=[];" vertex="1" connectable="0" parent="Rx35QmX60fOlnL7CrSn4-143">
          <mxGeometry x="-0.1481" y="3" relative="1" as="geometry">
            <mxPoint x="147" y="-23" as="offset" />
          </mxGeometry>
        </mxCell>
        <mxCell id="Rx35QmX60fOlnL7CrSn4-92" value="УКК" style="swimlane;html=1;startSize=20;" vertex="1" parent="1">
          <mxGeometry x="980" y="60" width="220" height="1800" as="geometry" />
        </mxCell>
        <mxCell id="Rx35QmX60fOlnL7CrSn4-104" style="edgeStyle=none;rounded=0;html=1;labelBackgroundColor=none;startArrow=none;startFill=0;startSize=5;endArrow=classicThin;endFill=1;endSize=5;jettySize=auto;orthogonalLoop=1;strokeWidth=1;fontFamily=Verdana;fontSize=12;entryX=1;entryY=0.5;entryDx=0;entryDy=0;" edge="1" parent="1" target="1c1d494c118603dd-6">
          <mxGeometry relative="1" as="geometry">
            <mxPoint x="410" y="230" as="sourcePoint" />
            <mxPoint x="202.80487804878044" y="480" as="targetPoint" />
            <Array as="points">
              <mxPoint x="360" y="280" />
            </Array>
          </mxGeometry>
        </mxCell>
        <mxCell id="Rx35QmX60fOlnL7CrSn4-105" value="Object" style="rounded=0;whiteSpace=wrap;html=1;shadow=0;comic=0;labelBackgroundColor=none;strokeWidth=1;fontFamily=Verdana;fontSize=12;align=center;arcSize=50;" vertex="1" parent="1">
          <mxGeometry x="440" y="950" width="70" height="30" as="geometry" />
        </mxCell>
      </root>
    </mxGraphModel>
  </diagram>
</mxfile>
